<?xml version="1.0" encoding="UTF-8" standalone="no"?>
<!DOCTYPE svg PUBLIC "-//W3C//DTD SVG 1.1//EN"
 "http://www.w3.org/Graphics/SVG/1.1/DTD/svg11.dtd">
<!-- Generated by graphviz version 8.0.4 (20230422.2207)
 -->
<!-- Title: G Pages: 1 -->
<svg width="244pt" height="245pt"
 viewBox="0.00 0.00 244.00 244.80" xmlns="http://www.w3.org/2000/svg" xmlns:xlink="http://www.w3.org/1999/xlink">
<g id="graph0" class="graph" transform="scale(1 1) rotate(0) translate(4 240.8)">
<title>G</title>
<polygon fill="white" stroke="none" points="-4,4 -4,-240.8 240,-240.8 240,4 -4,4"/>
<g id="clust1" class="cluster">
<title>cluster_0</title>
<polygon fill="none" stroke="black" points="8,-8 8,-228.8 102,-228.8 102,-8 8,-8"/>
<text text-anchor="middle" x="55" y="-211.5" font-family="Times,serif" font-size="14.00">Flowchart 1</text>
</g>
<g id="clust2" class="cluster">
<title>cluster_1</title>
<polygon fill="none" stroke="black" points="110,-8 110,-228.8 228,-228.8 228,-8 110,-8"/>
<text text-anchor="middle" x="169" y="-211.5" font-family="Times,serif" font-size="14.00">Flowchart 2</text>
</g>
<!-- DNA -->
<g id="node1" class="node">
<title>DNA</title>
<ellipse fill="none" stroke="black" cx="55" cy="-178" rx="31.73" ry="18"/>
<text text-anchor="middle" x="55" y="-173.1" font-family="Times,serif" font-size="14.00">DNA</text>
</g>
<!-- Gene -->
<g id="node2" class="node">
<title>Gene</title>
<ellipse fill="none" stroke="black" cx="55" cy="-106" rx="31.04" ry="18"/>
<text text-anchor="middle" x="55" y="-101.1" font-family="Times,serif" font-size="14.00">Gene</text>
</g>
<!-- DNA&#45;&gt;Gene -->
<g id="edge1" class="edge">
<title>DNA&#45;&gt;Gene</title>
<path fill="none" stroke="black" d="M55,-159.7C55,-152.24 55,-143.32 55,-134.97"/>
<polygon fill="black" stroke="black" points="58.5,-135.1 55,-125.1 51.5,-135.1 58.5,-135.1"/>
</g>
<!-- Protein -->
<g id="node3" class="node">
<title>Protein</title>
<ellipse fill="none" stroke="black" cx="55" cy="-34" rx="38.63" ry="18"/>
<text text-anchor="middle" x="55" y="-29.1" font-family="Times,serif" font-size="14.00">Protein</text>
</g>
<!-- Gene&#45;&gt;Protein -->
<g id="edge2" class="edge">
<title>Gene&#45;&gt;Protein</title>
<path fill="none" stroke="black" d="M55,-87.7C55,-80.24 55,-71.32 55,-62.97"/>
<polygon fill="black" stroke="black" points="58.5,-63.1 55,-53.1 51.5,-63.1 58.5,-63.1"/>
</g>
<!-- Cookbook -->
<g id="node4" class="node">
<title>Cookbook</title>
<ellipse fill="none" stroke="black" cx="169" cy="-178" rx="51.04" ry="18"/>
<text text-anchor="middle" x="169" y="-173.1" font-family="Times,serif" font-size="14.00">Cookbook</text>
</g>
<!-- Recipe -->
<g id="node5" class="node">
<title>Recipe</title>
<ellipse fill="none" stroke="black" cx="169" cy="-106" rx="37.25" ry="18"/>
<text text-anchor="middle" x="169" y="-101.1" font-family="Times,serif" font-size="14.00">Recipe</text>
</g>
<!-- Cookbook&#45;&gt;Recipe -->
<g id="edge3" class="edge">
<title>Cookbook&#45;&gt;Recipe</title>
<path fill="none" stroke="black" d="M169,-159.7C169,-152.24 169,-143.32 169,-134.97"/>
<polygon fill="black" stroke="black" points="172.5,-135.1 169,-125.1 165.5,-135.1 172.5,-135.1"/>
</g>
<!-- Food -->
<g id="node6" class="node">
<title>Food</title>
<ellipse fill="none" stroke="black" cx="169" cy="-34" rx="30.35" ry="18"/>
<text text-anchor="middle" x="169" y="-29.1" font-family="Times,serif" font-size="14.00">Food</text>
</g>
<!-- Recipe&#45;&gt;Food -->
<g id="edge4" class="edge">
<title>Recipe&#45;&gt;Food</title>
<path fill="none" stroke="black" d="M169,-87.7C169,-80.24 169,-71.32 169,-62.97"/>
<polygon fill="black" stroke="black" points="172.5,-63.1 169,-53.1 165.5,-63.1 172.5,-63.1"/>
</g>
</g>
</svg>
